Coordinates
version=1
nRows=9
nColumns=24
inDegrees=yes

Units are S.I. units (second, meters, Newtons, ...)
Angles are in degrees.

endheader
time	pelvis_tilt	pelvis_list	pelvis_rotation	pelvis_tx	pelvis_ty	pelvis_tz	hip_flexion_r	hip_adduction_r	hip_rotation_r	knee_angle_r	ankle_angle_r	subtalar_angle_r	mtp_angle_r	hip_flexion_l	hip_adduction_l	hip_rotation_l	knee_angle_l	ankle_angle_l	subtalar_angle_l	mtp_angle_l	lumbar_extension	lumbar_bending	lumbar_rotation
      4.69000000	     -9.74941967	      4.85652364	     -4.53518257	     -1.10387870	     -0.01693675	     -0.63832303	     16.54504936	     -7.06731434	     -3.36148434	    -58.97258763	    -15.30511917	    -15.34194385	      3.04448416	     25.79277237	      6.36090085	    -15.64305317	    -21.41006404	      1.16328922	    -11.37843008	      2.96717267	      7.69047366	     -4.56922027	      2.17509028
      4.69500000	     -9.81440481	      4.80400563	     -4.39564781	     -1.09917854	     -0.01642853	     -0.63903817	     17.43809529	     -7.05606671	     -3.41768382	    -59.98498004	    -14.63948570	    -15.74064067	      1.48541460	     25.45101052	      6.46853378	    -15.45924742	    -21.25126227	      1.45928797	    -11.28931733	      2.73867450	      7.70415961	     -4.52284516	      1.88748624
      4.70000000	     -9.78516717	      4.75527792	     -4.30385986	     -1.09441719	     -0.01575373	     -0.63975119	     18.19811796	     -7.05365083	     -3.43556423	    -60.80737530	    -14.32465281	    -16.41294199	      1.34088776	     24.95761996	      6.58635259	    -15.28216157	    -20.99311099	      1.65736645	    -11.29655087	      2.72905865	      7.63555105	     -4.46966826	      1.67799123
      4.70500000	     -9.96312558	      4.61107341	     -4.16902898	     -1.08983083	     -0.01529830	     -0.64043663	     19.18633221	     -6.90424960	     -3.48572160	    -61.61093041	    -13.85749525	    -16.99401916	      0.44109204	     24.73945705	      6.59560878	    -14.96466123	    -20.83764409	      1.88320380	    -11.34460705	      2.46596308	      7.76042487	     -4.31341898	      1.44664482
      4.71000000	     -9.92486277	      4.57334750	     -4.05259870	     -1.08514271	     -0.01462356	     -0.64116181	     19.92422438	     -6.92259627	     -3.52405754	    -62.30372939	    -13.46559610	    -17.47279705	      0.30457209	     24.23465546	      6.72770993	    -14.80267259	    -20.56591895	      2.08084749	    -11.29737391	      2.43636767	      7.67174121	     -4.27611964	      1.20421907
      4.71500000	    -10.04238840	      4.46147834	     -3.89419621	     -1.08059344	     -0.01409362	     -0.64184242	     20.82040575	     -6.82813997	     -3.61030415	    -62.93760742	    -13.02412797	    -17.99892844	     -0.22479245	     23.93691142	      6.77876645	    -14.52657623	    -20.36516463	      2.23193718	    -11.34421536	      2.20708608	      7.73089747	     -4.16742627	      0.91205613
      4.72000000	    -10.00373142	      4.37427615	     -3.80555970	     -1.07591772	     -0.01337328	     -0.64249125	     21.51417661	     -6.74950912	     -3.58527862	    -63.44392207	    -12.54489864	    -18.29683021	     -0.24179018	     23.40499737	      6.84787467	    -14.30519853	    -20.05942180	      2.44221871	    -11.27726850	      2.20460217	      7.64690268	     -4.07032082	      0.76605455
      4.72500000	    -10.13524141	      4.27204806	     -3.61408509	     -1.07129903	     -0.01288959	     -0.64327562	     22.38867285	     -6.69489068	     -3.71615739	    -63.94517308	    -11.89379002	    -18.48529574	     -0.99352529	     23.09825614	      6.93506067	    -13.96735697	    -19.82474922	      2.65801181	    -11.33851487	      1.73242412	      7.74361369	     -3.96215265	      0.49042157
      4.73000000	    -10.08137184	      4.20641087	     -3.52329735	     -1.06662727	     -0.01214772	     -0.64385923	     23.03989533	     -6.63487382	     -3.71522259	    -64.29401855	    -11.39709882	    -18.76866232	     -0.95231855	     22.53843975	      7.01196978	    -13.82682066	    -19.48902509	      2.82923765	    -11.23415798	      1.73486944	      7.65593079	     -3.89778249	      0.31100292
